# xmcd
#
# Track frame offsets:
#	150
#	10401
#	22825
#	34582
#	50644
#	61616
#	72831
#	85096
#	97537
#	108901
#	121453
#	133114
#	144424
#	156815
#	163513
#
# Disc length: 2411 seconds
#
# Revision: 0
# Processed by: cddbd v1.5.2PL0 Copyright (c) Steve Scherf et al.
# Submitted via: dBpowerAMP V4.0
#
DISCID=b209690f
DTITLE=Various Artist - Country Gold CD1
DYEAR=2008
DGENRE=Country
TTITLE0=Dave Dudley - Six Days On The Road
TTITLE1=Bobby Bare - 500 Miles Away From Home
TTITLE2=Lynn Anderson - Rodeo Cowboy
TTITLE3=Johnny Cash - A Boy Named Sue (Live)
TTITLE4=Bill Anderson - Wild Weekend
TTITLE5=Roger Miller - King Of The Road
TTITLE6=Sandy Posey - Single Girl
TTITLE7=Johnny Tillotson - It Keeps Right On A Hurtin'
TTITLE8=The Kendalls - Heaven's Just A Sin Away
TTITLE9=Johnny Cash - Ring Of Fire (Live)
TTITLE10=Don Gibson - Oh Lonesome Me
TTITLE11=Dolly Parton - Makin' Believe
TTITLE12=Patsy Cline - A Poor Man's Roses
TTITLE13=Jim Reeves - Have I Told You Lately That I Love You?
TTITLE14=Don Williams - I Believe In You (Live)
EXTD=from Payless Entertainment, 2008\n2 CD set
EXTT0=
EXTT1=
EXTT2=
EXTT3=
EXTT4=
EXTT5=
EXTT6=
EXTT7=
EXTT8=
EXTT9=
EXTT10=
EXTT11=
EXTT12=
EXTT13=
EXTT14=
PLAYORDER=
